<?xml version="1.0" encoding="utf-8"?>
<svg version="1.1" xmlns:xlink="http://www.w3.org/1999/xlink" width="543px" height="124px" xmlns="http://www.w3.org/2000/svg">
  <defs>
    <mask fill="white" id="clip24">
      <path d="M 0 124  L 0 94  L 40.5 82  L 100 100.5  L 155 74.5  L 211.5 94  L 269.5 55  L 327 41.5  L 381.5 67.5  L 436.5 24.5  L 495 41.5  L 543 0  L 543 124  L 0 124  Z " fill-rule="evenodd" />
    </mask>
  </defs>
  <g transform="matrix(1 0 0 1 -615 -337 )">
    <path d="M 0 124  L 0 94  L 40.5 82  L 100 100.5  L 155 74.5  L 211.5 94  L 269.5 55  L 327 41.5  L 381.5 67.5  L 436.5 24.5  L 495 41.5  L 543 0  L 543 124  L 0 124  Z " fill-rule="nonzero" fill="#999999" stroke="none" fill-opacity="0.8" transform="matrix(1 0 0 1 615 337 )" />
    <path d="M 0 124  L 0 94  L 40.5 82  L 100 100.5  L 155 74.5  L 211.5 94  L 269.5 55  L 327 41.5  L 381.5 67.5  L 436.5 24.5  L 495 41.5  L 543 0  L 543 124  L 0 124  Z " stroke-width="2" stroke="#333333" fill="none" transform="matrix(1 0 0 1 615 337 )" mask="url(#clip24)" />
  </g>
</svg>