<?xml version="1.0" encoding="utf-8"?>
<svg version="1.1" xmlns:xlink="http://www.w3.org/1999/xlink" width="543px" height="115px" xmlns="http://www.w3.org/2000/svg">
  <defs>
    <mask fill="white" id="clip25">
      <path d="M 0 115  L 0 55.6153846153843  L 40.4615384615384 49.4615384615386  L 100.461538461538 0.230769230769056  L 154.307692307692 28.6923076923076  L 208.923076923077 41.7692307692305  L 267.384615384615 85  L 327.384615384615 49.4615384615386  L 384.307692307692 89.4615384615386  L 438.923076923077 41.7692307692305  L 497.384615384615 49.4615384615386  L 543 30.2307692307691  L 543 115  L 0 115  Z " fill-rule="evenodd" />
    </mask>
  </defs>
  <g transform="matrix(1 0 0 1 -615 -346 )">
    <path d="M 0 115  L 0 55.6153846153843  L 40.4615384615384 49.4615384615386  L 100.461538461538 0.230769230769056  L 154.307692307692 28.6923076923076  L 208.923076923077 41.7692307692305  L 267.384615384615 85  L 327.384615384615 49.4615384615386  L 384.307692307692 89.4615384615386  L 438.923076923077 41.7692307692305  L 497.384615384615 49.4615384615386  L 543 30.2307692307691  L 543 115  L 0 115  Z " fill-rule="nonzero" fill="#e5e5e5" stroke="none" fill-opacity="0.317647058823529" transform="matrix(1 0 0 1 615 346 )" />
    <path d="M 0 115  L 0 55.6153846153843  L 40.4615384615384 49.4615384615386  L 100.461538461538 0.230769230769056  L 154.307692307692 28.6923076923076  L 208.923076923077 41.7692307692305  L 267.384615384615 85  L 327.384615384615 49.4615384615386  L 384.307692307692 89.4615384615386  L 438.923076923077 41.7692307692305  L 497.384615384615 49.4615384615386  L 543 30.2307692307691  L 543 115  L 0 115  Z " stroke-width="2" stroke="#cccccc" fill="none" transform="matrix(1 0 0 1 615 346 )" mask="url(#clip25)" />
  </g>
</svg>