<?xml version="1.0" encoding="utf-8"?>
<svg version="1.1" xmlns:xlink="http://www.w3.org/1999/xlink" width="5px" height="5px" xmlns="http://www.w3.org/2000/svg">
  <g transform="matrix(1 0 0 1 -613 -429 )">
    <path d="M 615.5 429  C 616.9 429  618 430.1  618 431.5  C 618 432.9  616.9 434  615.5 434  C 614.1 434  613 432.9  613 431.5  C 613 430.1  614.1 429  615.5 429  Z " fill-rule="nonzero" fill="#ffffff" stroke="none" />
    <path d="M 615.5 429.5  C 616.62 429.5  617.5 430.38  617.5 431.5  C 617.5 432.62  616.62 433.5  615.5 433.5  C 614.38 433.5  613.5 432.62  613.5 431.5  C 613.5 430.38  614.38 429.5  615.5 429.5  Z " stroke-width="1" stroke="#797979" fill="none" />
  </g>
</svg>