<?xml version="1.0" encoding="utf-8"?>
<svg version="1.1" xmlns:xlink="http://www.w3.org/1999/xlink" width="5px" height="5px" xmlns="http://www.w3.org/2000/svg">
  <g transform="matrix(1 0 0 1 -881 -389 )">
    <path d="M 883.5 389  C 884.9 389  886 390.1  886 391.5  C 886 392.9  884.9 394  883.5 394  C 882.1 394  881 392.9  881 391.5  C 881 390.1  882.1 389  883.5 389  Z " fill-rule="nonzero" fill="#ffffff" stroke="none" />
    <path d="M 883.5 389.5  C 884.62 389.5  885.5 390.38  885.5 391.5  C 885.5 392.62  884.62 393.5  883.5 393.5  C 882.38 393.5  881.5 392.62  881.5 391.5  C 881.5 390.38  882.38 389.5  883.5 389.5  Z " stroke-width="1" stroke="#333333" fill="none" />
  </g>
</svg>