<?xml version="1.0" encoding="utf-8"?>
<svg version="1.1" xmlns:xlink="http://www.w3.org/1999/xlink" width="60px" height="60px" xmlns="http://www.w3.org/2000/svg">
  <g transform="matrix(1 0 0 1 -627 -479 )">
    <path d="M 657 480  C 673.24 480  686 492.76  686 509  C 686 525.24  673.24 538  657 538  C 640.76 538  628 525.24  628 509  C 628 492.76  640.76 480  657 480  Z " fill-rule="nonzero" fill="#ffffff" stroke="none" />
    <path d="M 657 480  C 673.24 480  686 492.76  686 509  C 686 525.24  673.24 538  657 538  C 640.76 538  628 525.24  628 509  C 628 492.76  640.76 480  657 480  Z " stroke-width="2" stroke="#cccccc" fill="none" />
  </g>
</svg>