<?xml version="1.0" encoding="utf-8"?>
<svg version="1.1" xmlns:xlink="http://www.w3.org/1999/xlink" width="48px" height="48px" xmlns="http://www.w3.org/2000/svg">
  <g transform="matrix(1 0 0 1 -633 -485 )">
    <path d="M 657 485  C 670.44 485  681 495.56  681 509  C 681 522.44  670.44 533  657 533  C 643.56 533  633 522.44  633 509  C 633 495.56  643.56 485  657 485  Z " fill-rule="nonzero" fill="#ffffff" stroke="none" />
    <path d="M 657 485.5  C 670.16 485.5  680.5 495.84  680.5 509  C 680.5 522.16  670.16 532.5  657 532.5  C 643.84 532.5  633.5 522.16  633.5 509  C 633.5 495.84  643.84 485.5  657 485.5  Z " stroke-width="1" stroke="#ffffff" fill="none" />
  </g>
</svg>