<?xml version="1.0" encoding="utf-8"?>
<svg version="1.1" xmlns:xlink="http://www.w3.org/1999/xlink" width="28px" height="36px" xmlns="http://www.w3.org/2000/svg">
  <defs>
    <mask fill="white" id="clip3">
      <path d="M 7.92380952380953 0.673684210526325  L 6.60050125313284 0.0915186054307445  C 6.60050125313284 0.0915186054307445  2.94093307119149 2.46871096690843  1.26984126984127 6.87719298245616  C 0.104855673693887 9.9505238699862  -0.142838133649152 10.7070067571904  1.26984126984127 13.1228070175438  C 2.38339774199152 15.027081978085  4.6155388471178 15.6491228070175  4.6155388471178 15.6491228070175  C 4.6155388471178 15.6491228070175  8.22456140350877 14.3730025701195  7.04761904761905 13.1228070175438  C 5.87067669172932 11.8726114649682  3.55536130137854 12.9022750294908  3.04761904761905 10.8070175438596  C 1.94730422826054 6.26644042083784  7.92380952380953 0.673684210526325  7.92380952380953 0.673684210526325  Z " fill-rule="evenodd" />
    </mask>
    <filter x="708px" y="1570px" width="28px" height="36px" filterUnits="userSpaceOnUse" id="filter4">
      <feOffset dx="0" dy="0" in="SourceAlpha" result="shadowOffsetInner" />
      <feGaussianBlur stdDeviation="5" in="shadowOffsetInner" result="shadowGaussian" />
      <feComposite in2="shadowGaussian" operator="atop" in="SourceAlpha" result="shadowComposite" />
      <feColorMatrix type="matrix" values="0 0 0 0 0  0 0 0 0 0  0 0 0 0 0  0 0 0 0.349019607843137 0  " in="shadowComposite" />
    </filter>
    <g id="widget5">
      <path d="M 7.92380952380953 0.673684210526325  L 6.60050125313284 0.0915186054307445  C 6.60050125313284 0.0915186054307445  2.94093307119149 2.46871096690843  1.26984126984127 6.87719298245616  C 0.104855673693887 9.9505238699862  -0.142838133649152 10.7070067571904  1.26984126984127 13.1228070175438  C 2.38339774199152 15.027081978085  4.6155388471178 15.6491228070175  4.6155388471178 15.6491228070175  C 4.6155388471178 15.6491228070175  8.22456140350877 14.3730025701195  7.04761904761905 13.1228070175438  C 5.87067669172932 11.8726114649682  3.55536130137854 12.9022750294908  3.04761904761905 10.8070175438596  C 1.94730422826054 6.26644042083784  7.92380952380953 0.673684210526325  7.92380952380953 0.673684210526325  Z " fill-rule="nonzero" fill="#cccccc" stroke="none" transform="matrix(1 0 0 1 718 1580 )" />
      <path d="M 7.92380952380953 0.673684210526325  L 6.60050125313284 0.0915186054307445  C 6.60050125313284 0.0915186054307445  2.94093307119149 2.46871096690843  1.26984126984127 6.87719298245616  C 0.104855673693887 9.9505238699862  -0.142838133649152 10.7070067571904  1.26984126984127 13.1228070175438  C 2.38339774199152 15.027081978085  4.6155388471178 15.6491228070175  4.6155388471178 15.6491228070175  C 4.6155388471178 15.6491228070175  8.22456140350877 14.3730025701195  7.04761904761905 13.1228070175438  C 5.87067669172932 11.8726114649682  3.55536130137854 12.9022750294908  3.04761904761905 10.8070175438596  C 1.94730422826054 6.26644042083784  7.92380952380953 0.673684210526325  7.92380952380953 0.673684210526325  Z " stroke-width="4" stroke="#cccccc" fill="none" transform="matrix(1 0 0 1 718 1580 )" mask="url(#clip3)" />
    </g>
  </defs>
  <g transform="matrix(1 0 0 1 -708 -1570 )">
    <use xlink:href="#widget5" filter="url(#filter4)" />
    <use xlink:href="#widget5" />
  </g>
</svg>