<?xml version="1.0" encoding="utf-8"?>
<svg version="1.1" xmlns:xlink="http://www.w3.org/1999/xlink" width="22px" height="22px" xmlns="http://www.w3.org/2000/svg">
  <g transform="matrix(1 0 0 1 -489 -40 )">
    <path d="M 500 41  C 505.6 41  510 45.4  510 51  C 510 56.6  505.6 61  500 61  C 494.4 61  490 56.6  490 51  C 490 45.4  494.4 41  500 41  Z " fill-rule="nonzero" fill="#ffffff" stroke="none" fill-opacity="0" />
    <path d="M 500 41  C 505.6 41  510 45.4  510 51  C 510 56.6  505.6 61  500 61  C 494.4 61  490 56.6  490 51  C 490 45.4  494.4 41  500 41  Z " stroke-width="2" stroke="#ffffff" fill="none" />
  </g>
</svg>