<?xml version="1.0" encoding="utf-8"?>
<svg version="1.1" xmlns:xlink="http://www.w3.org/1999/xlink" width="12px" height="12px" xmlns="http://www.w3.org/2000/svg">
  <g transform="matrix(1 0 0 1 -13 -13 )">
    <path d="M 19 13  C 22.36 13  25 15.64  25 19  C 25 22.36  22.36 25  19 25  C 15.64 25  13 22.36  13 19  C 13 15.64  15.64 13  19 13  Z " fill-rule="nonzero" fill="#ffffff" stroke="none" />
    <path d="M 19 13.5  C 22.08 13.5  24.5 15.92  24.5 19  C 24.5 22.08  22.08 24.5  19 24.5  C 15.92 24.5  13.5 22.08  13.5 19  C 13.5 15.92  15.92 13.5  19 13.5  Z " stroke-width="1" stroke="#ffffff" fill="none" />
  </g>
</svg>