<?xml version="1.0" encoding="utf-8"?>
<svg version="1.1" xmlns:xlink="http://www.w3.org/1999/xlink" width="12px" height="12px" xmlns="http://www.w3.org/2000/svg">
  <g transform="matrix(1 0 0 1 -39 -13 )">
    <path d="M 45 13  C 48.36 13  51 15.64  51 19  C 51 22.36  48.36 25  45 25  C 41.64 25  39 22.36  39 19  C 39 15.64  41.64 13  45 13  Z " fill-rule="nonzero" fill="#cccccc" stroke="none" fill-opacity="0.498039215686275" />
    <path d="M 45 13.5  C 48.08 13.5  50.5 15.92  50.5 19  C 50.5 22.08  48.08 24.5  45 24.5  C 41.92 24.5  39.5 22.08  39.5 19  C 39.5 15.92  41.92 13.5  45 13.5  Z " stroke-width="1" stroke="#ffffff" fill="none" />
  </g>
</svg>