<?xml version="1.0" encoding="utf-8"?>
<svg version="1.1" xmlns:xlink="http://www.w3.org/1999/xlink" width="22px" height="22px" xmlns="http://www.w3.org/2000/svg">
  <g transform="matrix(1 0 0 1 -489 -41 )">
    <path d="M 500 42  C 505.6 42  510 46.4  510 52  C 510 57.6  505.6 62  500 62  C 494.4 62  490 57.6  490 52  C 490 46.4  494.4 42  500 42  Z " fill-rule="nonzero" fill="#ffffff" stroke="none" fill-opacity="0" />
    <path d="M 500 42  C 505.6 42  510 46.4  510 52  C 510 57.6  505.6 62  500 62  C 494.4 62  490 57.6  490 52  C 490 46.4  494.4 42  500 42  Z " stroke-width="2" stroke="#333333" fill="none" />
  </g>
</svg>