<?xml version="1.0" encoding="utf-8"?>
<svg version="1.1" xmlns:xlink="http://www.w3.org/1999/xlink" width="87px" height="90px" xmlns="http://www.w3.org/2000/svg">
  <g transform="matrix(1 0 0 1 -445 -1068 )">
    <path d="M 488.5 1068  C 512.86 1068  532 1087.8  532 1113  C 532 1138.2  512.86 1158  488.5 1158  C 464.14 1158  445 1138.2  445 1113  C 445 1087.8  464.14 1068  488.5 1068  Z " fill-rule="nonzero" fill="#ffffff" stroke="none" />
    <path d="M 488.5 1068.5  C 512.58 1068.5  531.5 1088.08  531.5 1113  C 531.5 1137.92  512.58 1157.5  488.5 1157.5  C 464.42 1157.5  445.5 1137.92  445.5 1113  C 445.5 1088.08  464.42 1068.5  488.5 1068.5  Z " stroke-width="1" stroke="#e4e4e4" fill="none" />
  </g>
</svg>