<?xml version="1.0" encoding="utf-8"?>
<svg version="1.1" xmlns:xlink="http://www.w3.org/1999/xlink" width="87px" height="90px" xmlns="http://www.w3.org/2000/svg">
  <g transform="matrix(1 0 0 1 -686 -1068 )">
    <path d="M 729.5 1068  C 753.86 1068  773 1087.8  773 1113  C 773 1138.2  753.86 1158  729.5 1158  C 705.14 1158  686 1138.2  686 1113  C 686 1087.8  705.14 1068  729.5 1068  Z " fill-rule="nonzero" fill="#d7d7d7" stroke="none" />
    <path d="M 729.5 1068.5  C 753.58 1068.5  772.5 1088.08  772.5 1113  C 772.5 1137.92  753.58 1157.5  729.5 1157.5  C 705.42 1157.5  686.5 1137.92  686.5 1113  C 686.5 1088.08  705.42 1068.5  729.5 1068.5  Z " stroke-width="1" stroke="#e4e4e4" fill="none" />
  </g>
</svg>