<?xml version="1.0" encoding="utf-8"?>
<svg version="1.1" xmlns:xlink="http://www.w3.org/1999/xlink" width="87px" height="90px" xmlns="http://www.w3.org/2000/svg">
  <g transform="matrix(1 0 0 1 -806 -1068 )">
    <path d="M 849.5 1068  C 873.86 1068  893 1087.8  893 1113  C 893 1138.2  873.86 1158  849.5 1158  C 825.14 1158  806 1138.2  806 1113  C 806 1087.8  825.14 1068  849.5 1068  Z " fill-rule="nonzero" fill="#e4e4e4" stroke="none" />
    <path d="M 849.5 1068.5  C 873.58 1068.5  892.5 1088.08  892.5 1113  C 892.5 1137.92  873.58 1157.5  849.5 1157.5  C 825.42 1157.5  806.5 1137.92  806.5 1113  C 806.5 1088.08  825.42 1068.5  849.5 1068.5  Z " stroke-width="1" stroke="#e4e4e4" fill="none" />
  </g>
</svg>