<?xml version="1.0" encoding="utf-8"?>
<svg version="1.1" xmlns:xlink="http://www.w3.org/1999/xlink" width="12px" height="12px" viewBox="996 807  12 12" xmlns="http://www.w3.org/2000/svg">
  <path d="M 1002 807  C 1005.36 807  1008 809.64  1008 813  C 1008 816.36  1005.36 819  1002 819  C 998.64 819  996 816.36  996 813  C 996 809.64  998.64 807  1002 807  Z " fill-rule="nonzero" fill="#ffffff" stroke="none" />
  <path d="M 1002 807.5  C 1005.08 807.5  1007.5 809.92  1007.5 813  C 1007.5 816.08  1005.08 818.5  1002 818.5  C 998.92 818.5  996.5 816.08  996.5 813  C 996.5 809.92  998.92 807.5  1002 807.5  Z " stroke-width="1" stroke="#797979" fill="none" />
  <path d="M 1002 816  C 1000.32 816  999 814.68  999 813  C 999 811.32  1000.32 810  1002 810  C 1003.68 810  1005 811.32  1005 813  C 1005 814.68  1003.68 816  1002 816  " fill-rule="nonzero" fill="#797979" stroke="none" />
</svg>