<?xml version="1.0" encoding="utf-8"?>
<svg version="1.1" xmlns:xlink="http://www.w3.org/1999/xlink" width="4px" height="9px" xmlns="http://www.w3.org/2000/svg">
  <g transform="matrix(1 0 0 1 -435 -136 )">
    <path d="M 3.93127147766323 0.541082164328657  C 3.97709049255441 0.601202404809618  4 0.670340681362724  4 0.748496993987976  C 4 0.826653306613226  3.97709049255441 0.895791583166332  3.93127147766323 0.955911823647295  L 1.23024054982818 4.5  L 3.93127147766323 8.04408817635271  C 3.97709049255441 8.10420841683367  4 8.17334669338677  4 8.25150300601202  C 4 8.32965931863727  3.97709049255441 8.39879759519038  3.93127147766323 8.45891783567134  L 3.58762886597938 8.90981963927856  C 3.5418098510882 8.96993987975952  3.48911798396335 9  3.42955326460481 9  C 3.36998854524628 9  3.31729667812142 8.96993987975952  3.27147766323024 8.90981963927856  L 0.0687285223367698 4.70741482965932  C 0.0229095074455899 4.64729458917836  0 4.57815631262525  0 4.5  C 0 4.42184368737475  0.0229095074455899 4.35270541082164  0.0687285223367698 4.29258517034068  L 3.27147766323024 0.090180360721443  C 3.31729667812142 0.0300601202404807  3.36998854524628 0  3.42955326460481 0  C 3.48911798396335 0  3.5418098510882 0.0300601202404807  3.58762886597938 0.090180360721443  L 3.93127147766323 0.541082164328657  Z " fill-rule="nonzero" fill="#666666" stroke="none" transform="matrix(1 0 0 1 435 136 )" />
  </g>
</svg>