<?xml version="1.0" encoding="utf-8"?>
<svg version="1.1" xmlns:xlink="http://www.w3.org/1999/xlink" width="108px" height="112px" xmlns="http://www.w3.org/2000/svg">
  <g transform="matrix(1 0 0 1 -1046 -213 )">
    <path d="M 1046 213  L 1154 213  L 1154 325  L 1046 325  L 1046 213  " fill-rule="nonzero" fill="#cccccc" stroke="none" />
    <path d="M 1054 221  L 1146 221  L 1146 317  L 1054 317  L 1054 221  " fill-rule="nonzero" fill="#ffffff" stroke="none" />
    <path d="M 1110.26 246  C 1105.724 246  1102.16 242.436  1102.16 237.9  C 1102.16 233.364  1105.724 229.8  1110.26 229.8  C 1114.796 229.8  1118.36 233.364  1118.36 237.9  C 1118.36 242.436  1114.796 246  1110.26 246  " fill-rule="nonzero" fill="#cccccc" stroke="none" />
    <path d="M 1057 315  L 1057 264.95  L 1078.75 242.2  L 1109.2 260.4  L 1126.6 255.85  L 1144 260.4  L 1144 315  L 1057 315  " fill-rule="nonzero" fill="#169bd5" stroke="none" />
  </g>
</svg>